<svg class="lds-gear" width="200px"  height="200px"  xmlns="http://www.w3.org/2000/svg" xmlns:xlink="http://www.w3.org/1999/xlink" viewBox="0 0 100 100" preserveAspectRatio="xMidYMid" style="background: none;"><g transform="translate(50 50)">
<g transform="rotate(164.965)">
<animateTransform attributeName="transform" type="rotate" values="0;360" keyTimes="0;1" dur="4.4s" repeatCount="indefinite"></animateTransform><path d="M28.284271247461902 -10 L48.2842712474619 -10 L48.2842712474619 10 L28.284271247461902 10 A30 30 0 0 1 22.80238966157534 19.49489742783178 L22.80238966157534 19.49489742783178 L32.80238966157534 36.81540550352055 L15.481881585886565 46.81540550352055 L5.481881585886565 29.49489742783178 A30 30 0 0 1 -5.481881585886561 29.494897427831784 L-5.481881585886561 29.494897427831784 L-15.481881585886555 46.81540550352056 L-32.802389661575326 36.815405503520566 L-22.80238966157533 19.494897427831788 A30 30 0 0 1 -28.284271247461902 10 L-28.284271247461902 10 L-48.2842712474619 10.000000000000002 L-48.2842712474619 -9.999999999999991 L-28.284271247461906 -9.999999999999993 A30 30 0 0 1 -22.802389661575344 -19.494897427831773 L-22.802389661575344 -19.494897427831773 L-32.80238966157535 -36.81540550352054 L-15.481881585886589 -46.815405503520545 L-5.4818815858865815 -29.494897427831777 A30 30 0 0 1 5.481881585886544 -29.494897427831784 L5.481881585886544 -29.494897427831784 L15.48188158588653 -46.815405503520566 L32.802389661575305 -36.81540550352058 L22.80238966157532 -19.494897427831802 A30 30 0 0 1 28.284271247461902 -10.000000000000004 M0 -10A10 10 0 1 0 0 10 A10 10 0 1 0 0 -10" fill="#1d3f72"></path></g></g></svg>